<svg width="150" height="150" viewBox="0 0 150 150" fill="none" xmlns="http://www.w3.org/2000/svg">
<path d="M63.1752 88.2175H79.7915C85.5317 88.2175 89.1571 84.5922 89.1571 79.1541C89.1571 72.5076 83.8701 70.6949 78.281 70.6949H63.1752V88.2175ZM63.1752 64.9547H76.4683C84.0211 64.9547 87.0423 62.2357 87.0423 56.7976C87.0423 49.6979 82.2084 48.7915 76.4683 48.7915H63.1752V64.9547ZM56.5287 43.2024H74.6556C79.0362 43.2024 84.9275 43.2024 87.7976 45.0151C91.1208 46.9789 93.6888 50.6042 93.6888 55.5891C93.6888 61.0272 90.9698 65.1057 86.287 66.9184V67.0695C92.4803 68.278 95.8036 72.9607 95.8036 79.3051C95.8036 86.707 90.5166 93.8067 80.6979 93.8067H56.5287V43.2024Z" fill="#3F3F46"/>
<path d="M74.8067 24.0181C50.6375 24.0181 31.1511 43.9577 31.1511 68.429C31.1511 92.9003 50.7886 112.84 74.8067 112.84C98.9759 112.84 118.613 92.9003 118.613 68.429C118.613 43.9577 98.9759 24.0181 74.8067 24.0181ZM112.873 68.5801C112.873 89.8792 95.8037 107.1 74.9578 107.1C53.9608 107.1 37.0424 89.8792 37.0424 68.5801C37.0424 47.281 54.1118 30.0604 74.9578 30.0604C95.8037 29.9094 112.873 47.281 112.873 68.5801Z" fill="#3F3F46"/>
<path d="M118.613 122.356H31.302V128.248H118.613V122.356Z" fill="#3F3F46"/>
<path d="M113.477 114.955C113.628 114.653 113.78 114.35 114.082 114.048C114.384 113.746 114.535 113.595 114.988 113.444C115.29 113.293 115.592 113.293 116.045 113.293C116.348 113.293 116.801 113.293 117.103 113.444C117.405 113.595 117.707 113.746 117.858 114.048C118.16 114.35 118.311 114.502 118.462 114.955C118.613 115.257 118.613 115.559 118.613 116.012C118.613 116.465 118.613 116.767 118.462 117.069C118.311 117.372 118.16 117.674 117.858 117.976C117.556 118.278 117.405 118.429 117.103 118.58C116.801 118.731 116.499 118.731 116.045 118.731C115.743 118.731 115.29 118.731 114.988 118.58C114.686 118.429 114.384 118.278 114.082 117.976C113.78 117.674 113.628 117.523 113.477 117.069C113.326 116.767 113.326 116.465 113.326 116.012C113.175 115.71 113.326 115.408 113.477 114.955ZM113.931 116.918C114.082 117.221 114.233 117.372 114.384 117.674C114.535 117.825 114.837 117.976 115.139 118.127C115.441 118.278 115.743 118.278 116.045 118.278C116.348 118.278 116.65 118.278 116.952 118.127C117.254 117.976 117.405 117.825 117.707 117.674C117.858 117.523 118.009 117.221 118.16 116.918C118.311 116.616 118.311 116.314 118.311 116.012C118.311 115.71 118.311 115.408 118.16 115.106C118.009 114.804 117.858 114.653 117.707 114.35C117.556 114.199 117.254 114.048 116.952 113.897C116.65 113.746 116.348 113.746 116.045 113.746C115.743 113.746 115.441 113.746 115.139 113.897C114.837 114.048 114.686 114.199 114.384 114.35C114.233 114.502 114.082 114.804 113.931 115.106C113.78 115.408 113.78 115.71 113.78 116.012C113.628 116.314 113.78 116.616 113.931 116.918ZM116.045 114.502C116.348 114.502 116.65 114.502 116.801 114.653C116.952 114.804 117.103 114.955 117.103 115.257C117.103 115.559 116.952 115.71 116.801 115.861C116.65 116.012 116.499 116.012 116.196 116.163L117.103 117.523H116.65L115.743 116.163H115.29V117.523H114.837V114.502H116.045ZM115.743 115.861C115.894 115.861 115.894 115.861 116.045 115.861C116.196 115.861 116.196 115.861 116.348 115.861C116.499 115.861 116.499 115.71 116.499 115.71C116.499 115.71 116.499 115.559 116.499 115.408C116.499 115.257 116.499 115.257 116.499 115.106L116.348 114.955H116.196C116.045 114.955 116.045 114.955 115.894 114.955H115.29V116.012H115.743V115.861Z" fill="#3F3F46"/>
<path d="M41.8761 4.53172C41.574 4.22961 41.423 3.92749 40.9698 3.62538C40.6677 3.47432 40.3656 3.17221 40.0634 3.02115C39.6103 2.87009 39.1571 2.87009 38.7039 2.87009C37.9486 2.87009 37.1934 3.02115 36.7402 3.32326C36.287 3.62538 35.8338 4.07855 35.3807 4.53172C35.0785 5.13595 34.9275 5.58912 34.7764 6.34441C34.6254 6.94864 34.4743 7.70393 34.4743 8.30816C34.4743 8.91239 34.6254 9.66767 34.7764 10.2719C34.9275 11.0272 35.0785 11.4804 35.3807 12.0846C35.8338 12.5378 36.287 12.9909 36.7402 13.2931C37.3444 13.5952 37.9486 13.7462 38.7039 13.7462C39.7613 13.7462 40.6677 13.4441 41.1208 12.6888C41.7251 12.0846 42.0272 11.1782 42.1782 10.1208H45.5015C45.6526 11.1782 45.3505 12.0846 45.0483 12.8399C44.7462 13.5952 44.142 14.3505 43.5378 14.9547C42.9335 15.5589 42.1782 16.0121 41.423 16.3142C40.6677 16.6163 39.7613 16.7674 38.7039 16.7674C37.4955 16.7674 36.4381 16.6163 35.3807 16.1631C34.4743 15.71 33.568 15.1057 32.9637 14.3505C32.3595 13.5952 31.7553 12.6888 31.4532 11.7825C31.1511 10.574 31 9.51662 31 8.30816C31 7.0997 31.1511 6.0423 31.6042 4.98489C31.9063 3.92749 32.5106 3.02115 33.1148 2.26586C33.719 1.51057 34.4743 0.906344 35.5317 0.60423C36.4381 0.151057 37.6465 0 38.855 0C39.7613 0 40.5166 0.151057 41.2719 0.453172C42.0272 0.755287 42.7825 1.0574 43.3867 1.51057C43.9909 1.96375 44.4441 2.56798 44.8973 3.32326C45.3505 4.07855 45.5015 4.83384 45.6526 5.74018H42.1782C42.1782 5.28701 42.0272 4.83384 41.8761 4.53172Z" fill="#3F3F46"/>
<path d="M53.8095 7.40182C53.5073 6.94865 52.9031 6.7976 52.1478 6.7976C51.6947 6.7976 51.2415 6.94865 50.9394 7.09971C50.6373 7.25077 50.3351 7.55288 50.1841 7.70394C50.033 8.00605 49.882 8.15711 49.7309 8.45923C49.5799 8.76134 49.5799 9.06346 49.5799 9.21451H54.7158C54.4137 8.45923 54.1116 7.855 53.8095 7.40182ZM50.1841 13.4441C50.6373 13.8973 51.3925 14.1994 52.1478 14.1994C52.7521 14.1994 53.3563 14.0484 53.8095 13.7462C54.2626 13.4441 54.5647 13.142 54.7158 12.6888H57.4348C56.9817 14.0484 56.3774 15.1058 55.4711 15.71C54.5647 16.3142 53.5073 16.6163 52.1478 16.6163C51.2415 16.6163 50.4862 16.4653 49.7309 16.1632C48.9756 15.861 48.3714 15.4079 47.9182 14.9547C47.4651 14.3505 47.0119 13.7462 46.7098 12.9909C46.4076 12.2357 46.2566 11.4804 46.2566 10.574C46.2566 9.66769 46.4076 8.9124 46.7098 8.15711C47.0119 7.40182 47.4651 6.79759 47.9182 6.19337C48.3714 5.58914 48.9756 5.28702 49.7309 4.83385C50.4862 4.53173 51.2415 4.38068 52.1478 4.38068C53.0542 4.38068 53.9605 4.53173 54.7158 4.98491C55.4711 5.43808 56.0753 5.89125 56.5285 6.49548C56.9817 7.09971 57.2838 7.855 57.5859 8.76134C57.737 9.51663 57.888 10.423 57.737 11.3293H49.4288C49.4288 12.2357 49.7309 12.9909 50.1841 13.4441Z" fill="#3F3F46"/>
<path d="M62.1178 4.68279V6.7976C62.2688 6.49548 62.4199 6.04231 62.722 5.74019C63.0241 5.43808 63.3262 5.13596 63.6283 4.98491C63.9305 4.83385 64.2326 4.53173 64.6857 4.53173C64.9879 4.38068 65.441 4.38068 65.8942 4.38068C66.0453 4.38068 66.3474 4.38068 66.6495 4.53173V7.55288C66.4984 7.55288 66.3474 7.55288 66.0453 7.40182C65.8942 7.40182 65.5921 7.40182 65.441 7.40182C64.8368 7.40182 64.3836 7.55288 63.9305 7.70394C63.4773 7.855 63.1752 8.15711 63.0241 8.45923C62.722 8.76134 62.5709 9.21451 62.5709 9.66769C62.4199 10.1209 62.4199 10.574 62.4199 11.1783V16.4653H59.2477V4.68279H62.1178Z" fill="#3F3F46"/>
<path d="M74.8066 4.68279V6.79759H72.5407V12.5378C72.5407 13.142 72.6918 13.4441 72.8429 13.5952C72.9939 13.7462 73.4471 13.8973 73.9003 13.8973C74.0513 13.8973 74.2024 13.8973 74.3534 13.8973C74.5045 13.8973 74.6555 13.8973 74.8066 13.8973V16.3142C74.5045 16.3142 74.2024 16.3142 73.9003 16.4653C73.5981 16.4653 73.296 16.4653 72.9939 16.4653C72.5407 16.4653 72.0876 16.4653 71.6344 16.3142C71.1812 16.3142 70.8791 16.1631 70.4259 15.861C70.1238 15.71 69.8217 15.4079 69.6706 14.9547C69.5196 14.6526 69.3685 14.1994 69.3685 13.5952V6.79759H67.4048V4.68279H69.3685V1.20847H72.5407V4.68279H74.8066Z" fill="#3F3F46"/>
<path d="M79.7913 16.3142H76.6191V4.68277H79.7913V16.3142ZM76.7702 0.302109H79.9424V2.87008H76.7702V0.302109Z" fill="#3F3F46"/>
<path d="M81.1511 6.79757V4.68277H82.9638V3.77642C82.9638 2.71902 83.2659 1.96374 83.8702 1.20845C84.4744 0.604219 85.5318 0.151047 86.7402 0.151047C87.0424 0.151047 87.3445 0.151047 87.6466 0.151047C87.9487 0.151047 88.2508 0.151047 88.4019 0.151047V2.56797C88.0998 2.56797 87.6466 2.56797 87.1934 2.56797C86.7402 2.56797 86.4381 2.71902 86.2871 2.87008C86.136 3.02114 85.985 3.47431 85.985 3.92748V4.68277H88.0998V6.79757H85.985V16.3142H82.8128V6.79757H81.1511Z" fill="#3F3F46"/>
<path d="M93.5377 16.3142H90.3655V4.68277H93.5377V16.3142ZM90.3655 0.302109H93.5377V2.87008H90.3655V0.302109Z" fill="#3F3F46"/>
<path d="M101.997 7.40182C101.695 6.94865 101.091 6.7976 100.335 6.7976C99.8821 6.7976 99.4289 6.94865 99.1268 7.09971C98.8247 7.25077 98.5226 7.55288 98.3715 7.70394C98.2205 8.00605 98.0694 8.15711 97.9184 8.45923C97.7673 8.76134 97.7673 9.06346 97.7673 9.21451H102.903C102.752 8.45923 102.45 7.855 101.997 7.40182ZM98.5226 13.4441C98.9758 14.0484 99.58 14.1994 100.486 14.1994C101.091 14.1994 101.695 14.0484 102.148 13.7462C102.601 13.4441 102.903 13.142 103.054 12.6888H105.773C105.32 14.0484 104.716 15.1058 103.81 15.71C102.903 16.3142 101.846 16.6163 100.486 16.6163C99.58 16.6163 98.8247 16.4653 98.0694 16.1632C97.3141 15.861 96.7099 15.4079 96.2567 14.9547C95.8036 14.3505 95.3504 13.7462 95.0483 12.9909C94.7462 12.2357 94.5951 11.4804 94.5951 10.574C94.5951 9.66769 94.7462 8.9124 95.0483 8.15711C95.3504 7.40182 95.6525 6.79759 96.2567 6.19337C96.861 5.58914 97.3141 5.28702 98.0694 4.83385C98.8247 4.53173 99.58 4.38068 100.486 4.38068C101.393 4.38068 102.299 4.53173 103.054 4.98491C103.81 5.43808 104.414 5.89125 104.867 6.49548C105.32 7.09971 105.622 7.855 105.924 8.76134C106.075 9.51663 106.227 10.423 106.075 11.3293H97.7673C97.7673 12.2357 98.0694 12.9909 98.5226 13.4441Z" fill="#3F3F46"/>
<path d="M115.29 9.06344C115.139 8.61027 114.988 8.15709 114.837 7.85498C114.686 7.55286 114.384 7.25075 114.081 7.09969C113.779 6.94863 113.326 6.79758 112.873 6.79758C112.42 6.79758 111.967 6.94863 111.513 7.09969C111.211 7.25075 110.909 7.55286 110.607 8.00604C110.456 8.30815 110.305 8.76132 110.154 9.2145C110.003 9.66767 110.003 10.1208 110.003 10.574C110.003 11.0272 110.003 11.4804 110.154 11.9335C110.305 12.3867 110.456 12.8399 110.607 13.142C110.909 13.4441 111.06 13.7462 111.513 14.0483C111.816 14.1994 112.269 14.3504 112.722 14.3504C113.175 14.3504 113.628 14.1994 114.081 14.0483C114.384 13.8973 114.686 13.5952 114.837 13.142C114.988 12.8399 115.139 12.3867 115.29 11.9335C115.441 11.4804 115.441 11.0272 115.441 10.574C115.441 10.1208 115.441 9.51661 115.29 9.06344ZM115.441 14.8036C115.139 15.4078 114.535 15.861 113.93 16.1631C113.326 16.4653 112.722 16.6163 111.967 16.6163C111.06 16.6163 110.305 16.4653 109.701 16.1631C109.097 15.861 108.492 15.4078 108.039 14.8036C107.586 14.1994 107.284 13.5952 107.133 12.8399C106.982 12.0846 106.831 11.3293 106.831 10.574C106.831 9.81873 106.982 9.06344 107.133 8.30815C107.284 7.55286 107.737 6.94863 108.039 6.34441C108.492 5.74018 108.945 5.287 109.55 4.98489C110.154 4.68277 110.909 4.53172 111.816 4.53172C112.42 4.53172 113.175 4.68277 113.779 4.98489C114.384 5.287 114.837 5.74018 115.29 6.34441V0.302109H118.462V16.3142H115.441V14.8036Z" fill="#3F3F46"/>
<path d="M38.8551 139.577C38.704 138.52 37.6466 137.613 36.4381 137.613C34.1723 137.613 33.417 139.577 33.417 141.541C33.417 143.353 34.1723 145.317 36.4381 145.317C37.9487 145.317 38.704 144.26 39.0061 142.749H41.423C41.1209 145.619 39.3082 147.432 36.5892 147.432C33.1149 147.432 31.1511 144.864 31.1511 141.541C31.1511 138.218 33.1149 135.65 36.5892 135.65C39.0061 135.65 41.1209 137.16 41.423 139.728H38.8551V139.577Z" fill="#3F3F46"/>
<path d="M46.4078 145.619C47.9184 145.619 48.3716 144.26 48.3716 143.051C48.3716 141.692 47.9184 140.483 46.4078 140.483C44.8973 140.483 44.4441 141.843 44.4441 143.051C44.4441 144.26 44.8973 145.619 46.4078 145.619ZM46.4078 138.671C48.9758 138.671 50.6374 140.332 50.6374 143.051C50.6374 145.619 48.9758 147.281 46.4078 147.281C43.8399 147.281 42.1782 145.619 42.1782 143.051C42.3293 140.332 43.9909 138.671 46.4078 138.671Z" fill="#3F3F46"/>
<path d="M51.9971 138.822H54.1119V140.332C54.565 139.275 55.6224 138.52 56.6799 138.52C56.8309 138.52 56.982 138.52 57.133 138.671V140.785C56.982 140.785 56.5288 140.634 56.3777 140.634C54.7161 140.634 54.2629 141.843 54.2629 143.202V146.828H51.9971V138.822Z" fill="#3F3F46"/>
<path d="M64.0816 143.051C64.0816 141.692 63.6284 140.483 62.1179 140.483C60.6073 140.483 60.1541 141.843 60.1541 143.051C60.1541 144.411 60.6073 145.619 62.1179 145.619C63.4774 145.619 64.0816 144.411 64.0816 143.051ZM58.0393 138.973H60.1541V139.879C60.6073 138.973 61.5136 138.671 62.571 138.671C65.139 138.671 66.1964 140.786 66.1964 143.051C66.1964 145.166 64.9879 147.281 62.7221 147.281C61.8157 147.281 60.9094 146.828 60.3052 146.073V150H58.0393V138.973Z" fill="#3F3F46"/>
<path d="M71.0301 145.619C72.5407 145.619 72.9939 144.26 72.9939 143.051C72.9939 141.692 72.5407 140.483 71.0301 140.483C69.5196 140.483 69.0664 141.843 69.0664 143.051C69.0664 144.26 69.5196 145.619 71.0301 145.619ZM71.0301 138.671C73.5981 138.671 75.2597 140.332 75.2597 143.051C75.2597 145.619 73.5981 147.281 71.0301 147.281C68.4622 147.281 66.8005 145.619 66.8005 143.051C66.9516 140.332 68.6132 138.671 71.0301 138.671Z" fill="#3F3F46"/>
<path d="M76.6191 138.822H78.7339V140.332C79.1871 139.275 80.2445 138.52 81.3019 138.52C81.453 138.52 81.604 138.52 81.7551 138.671V140.785C81.604 140.785 81.1509 140.634 80.9998 140.634C79.3382 140.634 78.885 141.843 78.885 143.202V146.828H76.6191V138.822Z" fill="#3F3F46"/>
<path d="M87.4955 143.051C87.1934 143.353 86.287 143.353 85.6828 143.505C84.9275 143.656 84.3233 143.958 84.3233 144.713C84.3233 145.619 84.9275 145.77 85.6828 145.77C87.3444 145.77 87.4955 144.411 87.4955 143.958V143.051ZM82.5106 141.39C82.6617 139.275 84.4744 138.671 86.287 138.671C87.9487 138.671 89.7614 138.973 89.7614 140.937V145.166C89.7614 145.921 89.9124 146.677 90.0635 146.979H87.7976C87.7976 146.677 87.6466 146.526 87.6466 146.224C86.8913 146.979 85.9849 147.281 84.9275 147.281C83.417 147.281 82.2085 146.526 82.2085 144.864C82.2085 143.051 83.568 142.598 84.9275 142.447C86.287 142.296 87.4955 142.296 87.4955 141.39C87.4955 140.483 86.8913 140.332 86.136 140.332C85.2296 140.332 84.7765 140.634 84.6254 141.541H82.5106V141.39Z" fill="#3F3F46"/>
<path d="M94.2931 138.973H95.9547V140.483H94.2931V144.411C94.2931 145.166 94.4442 145.317 95.1994 145.317C95.5016 145.317 95.6526 145.317 95.9547 145.317V147.13C95.6526 147.13 95.0484 147.281 94.5952 147.281C93.2357 147.281 92.0272 146.979 92.0272 145.317V140.483H90.6677V138.973H92.0272V136.556H94.2931V138.973Z" fill="#3F3F46"/>
<path d="M97.4651 138.973H99.7309V147.13H97.4651V138.973ZM99.7309 137.613H97.4651V135.801H99.7309V137.613Z" fill="#3F3F46"/>
<path d="M105.32 145.619C106.831 145.619 107.284 144.26 107.284 143.051C107.284 141.692 106.831 140.483 105.32 140.483C103.81 140.483 103.357 141.843 103.357 143.051C103.357 144.26 103.81 145.619 105.32 145.619ZM105.32 138.671C107.888 138.671 109.55 140.332 109.55 143.051C109.55 145.619 107.888 147.281 105.32 147.281C102.752 147.281 101.242 145.619 101.242 143.051C101.242 140.332 102.903 138.671 105.32 138.671Z" fill="#3F3F46"/>
<path d="M110.909 138.973H113.024V140.181C113.629 139.275 114.535 138.822 115.441 138.822C117.858 138.822 118.311 140.181 118.311 142.145V147.13H116.045V142.447C116.045 141.088 115.592 140.483 114.686 140.483C113.477 140.483 113.024 141.239 113.024 142.9V147.13H110.758V138.973H110.909Z" fill="#3F3F46"/>
</svg>
