<svg width="150" height="150" viewBox="0 0 150 150" fill="none" xmlns="http://www.w3.org/2000/svg">
<path d="M70.0876 135C55.4228 135.021 41.258 129.76 30.2691 120.211C19.2802 110.662 12.2281 97.4865 10.4452 83.1731C8.66233 68.8597 12.272 54.3998 20.5924 42.5252C28.9127 30.6506 41.3676 22.1835 55.604 18.7235C69.8404 15.2636 84.8725 17.0504 97.8604 23.7463C110.848 30.4423 120.893 41.5837 126.096 55.0658C131.299 68.5479 131.301 83.4371 126.101 96.9205C120.902 110.404 110.86 121.548 97.8737 128.247C89.3128 132.699 79.7719 135.018 70.0876 135Z" fill="#BDBDBD"/>
<path d="M52.5131 19C52.5131 19 53.749 25.4537 59.3163 26.4886C64.8835 27.5234 73.5236 27.7682 69.0675 33.9215C64.6114 40.0748 61.2665 33.9215 58.2051 39.563C55.1436 45.2044 48.4425 52.1255 40.3693 53.1492C32.2962 54.1729 26.7629 53.917 26.9897 58.5347C27.2165 63.1525 30.3913 67.2473 33.6795 68.5491C36.9677 69.851 40.3693 63.4195 41.764 66.2347C43.1587 69.0499 42.3196 72.911 45.0976 74.1795C47.8755 75.448 56.527 72.1321 60.1553 74.1795C63.7837 76.2269 62.9333 81.5345 68.2284 83.7599C73.5236 85.9854 79.3857 84.1828 77.7076 89.8242C76.0295 95.4657 66.8451 102.387 66.0061 105.725C65.167 109.063 67.4007 112.646 60.7109 115.205C54.0211 117.764 55.9714 118.799 55.1323 122.649C54.2932 126.499 53.182 127 51.2318 127C49.2815 127 43.4308 122.905 43.1473 110.855C42.8639 98.8038 45.4151 95.9775 37.0244 93.6742C28.6338 91.3709 24.1664 86.3971 25.6064 77.9961C28.1689 63.108 14.4378 66.1568 12 57.9672C12.0296 57.9029 12.0524 57.8358 12.068 57.7669L12.6463 56.109L13.3039 54.362C14.8853 50.121 17.0359 46.1058 19.699 42.4226C21.2995 40.0852 23.0852 37.8752 25.0395 35.8131L26.0713 34.7004C28.5971 32.0645 31.398 29.6963 34.4279 27.6347L36.4915 26.266C39.7193 24.0419 43.2301 22.2426 46.9344 20.9139L49.2022 20.0682L50.7102 19.5564L52.5131 19Z" fill="#F6F4F0"/>
<path d="M123.121 48.121C116.678 49.8294 110.003 50.5271 103.341 50.1887C93.4008 49.451 84.9382 44.4326 81.0342 48.7022C77.1301 52.9718 76.5208 62.651 77.2881 65.0429C79.5447 71.7491 86.6307 71.7491 92.0581 79.5729C98.9974 92.2253 95.4431 103.715 98.704 111.148C101.965 118.581 109.987 120 109.987 120C113.922 116.534 117.364 112.556 120.221 108.175L124.419 91.1187L129 69.6143L128.3 62.1257C127.781 59.6668 126.969 57.1296 126.326 54.8495C125.444 52.5243 124.372 50.2741 123.121 48.121Z" fill="#F6F4F0"/>
<path d="M117 39.5372C109.066 44.0776 102.313 41.6144 95.0584 37.9821C87.804 34.3498 82.3659 39.4918 79.19 37.6529C76.0141 35.8141 79.6469 28.0954 84.7618 27.2555C93.008 25.9161 95.5376 23.0102 95.5376 23.0102L95.7939 22C96.9082 22 101.711 25.3145 103.338 26.3247C103.55 26.4609 105.5 27.8911 105.801 28.1636L106.648 28.8106C107.951 29.8662 108.81 30.604 109.835 31.5575L110.682 32.352C111.161 32.7947 111.506 33.158 111.506 33.158C111.506 33.158 111.907 33.5439 112.531 34.2023C113.155 34.8606 113.39 35.099 113.757 35.5303C114.125 35.9616 114.872 36.6654 116.655 38.9356L117 39.5372Z" fill="#F6F4F0"/>
<path d="M65.0565 133C51.6303 132.997 38.5922 128.577 28.0234 120.446C17.4547 112.314 9.96455 100.941 6.74866 88.1403C3.53278 75.3398 4.77655 61.8503 10.2814 49.8251C15.7863 37.8 25.2349 27.9324 37.1191 21.7975C45.7048 17.3216 55.2794 14.9873 65 15.0001C78.4213 15.0157 91.4508 19.4445 102.01 27.5801C112.569 35.7156 120.05 47.0893 123.258 59.8867C126.467 72.6841 125.219 86.168 119.713 98.1876C114.207 110.207 104.761 120.07 92.8809 126.203C84.3126 130.657 74.7626 132.979 65.0678 132.967L65.0565 133Z" stroke="#222222" stroke-width="2.98" stroke-linecap="round" stroke-linejoin="round"/>
<path d="M99.3234 72.1171C104.935 80.6907 120.502 91.4328 121.164 91.8887C121.269 91.9619 121.395 92.0008 121.523 91.9999C121.652 92.0023 121.778 91.9633 121.882 91.8887C122.545 91.4328 138.134 80.6907 143.723 72.1283C145.08 70.0925 145.861 67.7329 145.983 65.296C146.105 62.8592 145.565 60.4346 144.418 58.2755C143.271 56.1164 141.56 54.3022 139.463 53.0224C137.367 51.7425 134.962 51.0441 132.5 51.0001C130.355 50.9942 128.241 51.4956 126.332 52.4627C124.423 53.4298 122.774 54.8345 121.523 56.5601C120.272 54.8345 118.624 53.4298 116.715 52.4627C114.806 51.4956 112.691 50.9942 110.547 51.0001C106.933 51.0265 103.477 52.472 100.938 55.0194C98.3983 57.5669 96.9822 61.0083 97.0002 64.5888C96.9971 67.2826 97.7975 69.9172 99.301 72.1616L99.3234 72.1171Z" fill="white"/>
<path d="M103.288 74.1172C108.903 82.6908 124.478 93.4328 125.141 93.8887C125.245 93.9633 125.371 94.0023 125.5 93.9999C125.629 94.0008 125.754 93.9619 125.859 93.8887C126.522 93.4328 142.12 82.6908 147.712 74.1283C149.074 72.0934 149.858 69.7331 149.983 67.2949C150.107 64.8568 149.566 62.4304 148.418 60.27C147.27 58.1097 145.556 56.2949 143.456 55.0159C141.356 53.7369 138.948 53.0406 136.483 53.0002C134.336 52.9888 132.218 53.4879 130.307 54.4554C128.396 55.4229 126.748 56.8306 125.5 58.5602C124.249 56.8347 122.599 55.4299 120.689 54.4628C118.779 53.4958 116.663 52.9943 114.517 53.0002C112.052 53.0406 109.644 53.7369 107.544 55.0159C105.444 56.2949 103.73 58.1097 102.582 60.27C101.434 62.4304 100.893 64.8568 101.017 67.2949C101.142 69.7331 101.926 72.0934 103.288 74.1283V74.1172Z" fill="#77D253"/>
<path d="M99.2877 72.1172C104.903 80.6908 120.478 91.4329 121.141 91.8888C121.248 91.9573 121.372 91.9958 121.5 92C121.628 91.9975 121.753 91.9589 121.859 91.8888C122.522 91.4329 138.12 80.6908 143.712 72.1283C145.074 70.0933 145.858 67.7331 145.983 65.2949C146.107 62.8567 145.566 60.4303 144.418 58.2699C143.27 56.1096 141.556 54.2948 139.456 53.0158C137.356 51.7367 134.948 51.0405 132.483 51.0001C130.337 50.9942 128.221 51.4956 126.311 52.4627C124.401 53.4298 122.751 54.8345 121.5 56.5601C120.249 54.8345 118.599 53.4298 116.689 52.4627C114.779 51.4956 112.663 50.9942 110.517 51.0001C108.052 51.0405 105.644 51.7367 103.544 53.0158C101.444 54.2948 99.73 56.1096 98.5818 58.2699C97.4336 60.4303 96.8933 62.8567 97.0175 65.2949C97.1416 67.7331 97.9258 70.0933 99.2877 72.1283V72.1172Z" stroke="#222222" stroke-width="2.98" stroke-miterlimit="10"/>
<path d="M121 57.6614L116.779 47.7409C110.445 49.0583 103.955 49.5293 97.4894 49.1408C87.4929 48.4133 78.9828 43.4641 75.0568 47.6858C71.1308 51.9075 70.5181 61.4312 71.2897 63.8011C73.559 70.4147 80.6848 70.4147 86.1426 78.1307C93.1209 90.6195 89.5467 101.94 92.8372 109.27C96.1278 116.6 104.275 118 104.275 118L114.339 106.084L118.617 89.429" stroke="#222222" stroke-width="1.6" stroke-miterlimit="10"/>
<path d="M46.5994 17C46.5994 17 48.1251 22.7897 53.5931 23.82C59.0612 24.8503 67.5584 25.119 63.1706 31.3119C58.7828 37.5048 55.5086 31.3119 52.5018 36.9896C49.4949 42.6674 42.9243 49.6329 34.9839 50.6632C27.0435 51.6935 21.62 51.4359 21.8428 56.0834C22.0655 60.7308 25.1837 64.8519 28.4133 66.1622C31.6429 67.4724 34.9839 61.0108 36.3537 63.844C37.7235 66.6773 36.8994 70.5632 39.6947 71.8399C42.49 73.1165 50.9092 69.7793 54.4729 71.8399C58.0366 73.9004 57.2125 79.2422 62.4133 81.4708C67.6141 83.6993 73.3606 81.9075 71.7124 87.5852C70.0641 93.263 61.0435 100.229 60.2194 103.588C59.3953 106.948 61.5892 110.554 55.0186 113.129C48.448 115.705 50.3635 116.747 49.5506 120.621C48.7376 124.496 47.6351 125 45.7085 125C43.7818 125 37.9908 120.856 37.7792 108.773C37.5676 96.6897 40.0065 93.8005 31.7543 91.4824C23.5021 89.1642 19.0586 84.136 20.473 75.6698C23.0121 60.6188 10.2496 63.9448 8 55.5122L12.2764 46.0606L17.7334 37.1016L25.3285 29.2625L36.2869 21.6027L46.5994 17Z" stroke="#222222" stroke-width="1.6" stroke-miterlimit="10"/>
<path d="M112 38.6462C103.92 43.1542 96.7344 40.4269 89.334 36.8091C81.9335 33.1914 76.4257 38.308 73.2071 36.4823C69.9885 34.6565 73.6604 26.9927 78.8736 26.1587C87.2487 24.8288 89.7873 22 89.7873 22H91.9179L102.934 29.258L109.575 35.6257L112 38.6462Z" stroke="#222222" stroke-width="1.6" stroke-miterlimit="10"/>
</svg>
