<svg width="150" height="150" viewBox="0 0 150 150" fill="none" xmlns="http://www.w3.org/2000/svg">
<path d="M77.1761 57.3635C76.7747 56.5302 75.9263 56 74.9946 56C74.0628 56 73.222 56.5302 72.813 57.3635L67.9423 67.3851L57.0647 68.991C56.1557 69.1274 55.3982 69.7637 55.1179 70.6348C54.8376 71.5059 55.0649 72.4679 55.7163 73.1118L63.6094 80.9216L61.746 91.9583C61.5945 92.8673 61.9732 93.7914 62.7231 94.3292C63.4731 94.8671 64.4654 94.9352 65.2835 94.5035L75.0021 89.3146L84.7208 94.5035C85.5389 94.9352 86.5312 94.8746 87.2811 94.3292C88.031 93.7838 88.4098 92.8673 88.2583 91.9583L86.3873 80.9216L94.2804 73.1118C94.9318 72.4679 95.1666 71.5059 94.8788 70.6348C94.5909 69.7637 93.841 69.1274 92.932 68.991L82.0468 67.3851L77.1761 57.3635Z" fill="#EEB332"/>
<path d="M39.8601 65.8522C39.6092 65.3314 39.0789 65 38.4966 65C37.9143 65 37.3888 65.3314 37.1331 65.8522L34.0889 72.1157L27.2904 73.1194C26.7223 73.2046 26.2489 73.6023 26.0737 74.1467C25.8985 74.6912 26.0405 75.2925 26.4477 75.6949L31.3809 80.576L30.2162 87.4739C30.1215 88.042 30.3583 88.6196 30.827 88.9558C31.2957 89.2919 31.9159 89.3345 32.4272 89.0647L38.5013 85.8216L44.5755 89.0647C45.0868 89.3345 45.707 89.2966 46.1757 88.9558C46.6444 88.6149 46.8811 88.042 46.7864 87.4739L45.6171 80.576L50.5502 75.6949C50.9574 75.2925 51.1042 74.6912 50.9242 74.1467C50.7443 73.6023 50.2756 73.2046 49.7075 73.1194L42.9043 72.1157L39.8601 65.8522Z" fill="#EEB332"/>
<path d="M13.9793 72.6136C13.7986 72.2386 13.4168 72 12.9976 72C12.5783 72 12.1999 72.2386 12.0158 72.6136L9.82403 77.1233L4.9291 77.846C4.52005 77.9073 4.17918 78.1937 4.05305 78.5857C3.92693 78.9777 4.02919 79.4106 4.32234 79.7003L7.87424 83.2147L7.03569 88.1812C6.96752 88.5903 7.13795 89.0061 7.47542 89.2482C7.81288 89.4902 8.25942 89.5209 8.62756 89.3266L13.001 86.9916L17.3744 89.3266C17.7425 89.5209 18.189 89.4936 18.5265 89.2482C18.864 89.0027 19.0344 88.5903 18.9662 88.1812L18.1243 83.2147L21.6762 79.7003C21.9693 79.4106 22.075 78.9777 21.9455 78.5857C21.8159 78.1937 21.4785 77.9073 21.0694 77.846L16.1711 77.1233L13.9793 72.6136Z" fill="#EEB332"/>
<path d="M137.979 72.6136C137.799 72.2386 137.417 72 136.998 72C136.578 72 136.2 72.2386 136.016 72.6136L133.824 77.1233L128.929 77.846C128.52 77.9073 128.179 78.1937 128.053 78.5857C127.927 78.9777 128.029 79.4106 128.322 79.7003L131.874 83.2147L131.036 88.1812C130.968 88.5903 131.138 89.0061 131.475 89.2482C131.813 89.4902 132.259 89.5209 132.628 89.3266L137.001 86.9916L141.374 89.3266C141.742 89.5209 142.189 89.4936 142.527 89.2482C142.864 89.0027 143.034 88.5903 142.966 88.1812L142.124 83.2147L145.676 79.7003C145.969 79.4106 146.075 78.9777 145.945 78.5857C145.816 78.1937 145.478 77.9073 145.069 77.846L140.171 77.1233L137.979 72.6136Z" fill="#EEB332"/>
<path d="M112.86 65.8522C112.609 65.3314 112.079 65 111.497 65C110.914 65 110.389 65.3314 110.133 65.8522L107.089 72.1157L100.29 73.1194C99.7223 73.2046 99.2489 73.6023 99.0737 74.1467C98.8985 74.6912 99.0405 75.2925 99.4477 75.6949L104.381 80.576L103.216 87.4739C103.122 88.042 103.358 88.6196 103.827 88.9558C104.296 89.2919 104.916 89.3345 105.427 89.0647L111.501 85.8216L117.575 89.0647C118.087 89.3345 118.707 89.2966 119.176 88.9558C119.644 88.6149 119.881 88.042 119.786 87.4739L118.617 80.576L123.55 75.6949C123.957 75.2925 124.104 74.6912 123.924 74.1467C123.744 73.6023 123.276 73.2046 122.708 73.1194L115.904 72.1157L112.86 65.8522Z" fill="#EEB332"/>
</svg>
